<svg width="20" height="20" viewBox="0 0 20 20" fill="none" xmlns="http://www.w3.org/2000/svg">
<path id="Vector" d="M14.5111 1.33988C15.9637 2.21756 17.17 3.47994 18.0087 5.00014C18.8473 6.52033 19.2889 8.24477 19.2888 10.0001C19.2888 11.7555 18.8473 13.4799 18.0086 15.0001C17.1699 16.5203 15.9636 17.7827 14.511 18.6603C13.0583 19.538 11.4105 20 9.73314 20C8.05578 20 6.40798 19.5379 4.95535 18.6602C3.50273 17.7825 2.29648 16.5201 1.45783 14.9998C0.619182 13.4796 0.177692 11.7552 0.177734 9.99982L0.182512 9.67582C0.236026 7.94882 0.716236 6.26581 1.57632 4.79085C2.43641 3.31589 3.64703 2.09933 5.09014 1.25977C6.53326 0.420202 8.15963 -0.0137107 9.8107 0.000330243C11.4618 0.0143712 13.0812 0.475887 14.5111 1.33988ZM9.73329 3.99986C9.47986 3.99986 9.23681 4.10522 9.05761 4.29275C8.87841 4.48029 8.77773 4.73464 8.77773 4.99986C8.01745 4.99986 7.2883 5.31592 6.75069 5.87853C6.21309 6.44113 5.91107 7.20419 5.91107 7.99983C5.91107 8.79548 6.21309 9.55853 6.75069 10.1211C7.2883 10.6837 8.01745 10.9998 8.77773 10.9998V12.9998C8.61926 13.009 8.46104 12.9775 8.31683 12.9082C8.17261 12.8388 8.04677 12.7336 7.95022 12.6018L7.88525 12.5008C7.75451 12.2802 7.5469 12.1214 7.30631 12.058C7.06572 11.9947 6.81102 12.0317 6.59607 12.1613C6.38112 12.291 6.22276 12.503 6.15448 12.7526C6.08621 13.0022 6.11337 13.2698 6.23022 13.4988C6.47412 13.9415 6.82201 14.3116 7.24092 14.5741C7.65983 14.8366 8.13586 14.9828 8.62389 14.9988H8.77773C8.77753 15.2439 8.86335 15.4805 9.0189 15.6638C9.17445 15.847 9.38889 15.9641 9.62149 15.9928L9.73329 15.9998C9.98672 15.9998 10.2298 15.8944 10.409 15.7069C10.5882 15.5193 10.6888 15.265 10.6888 14.9998L10.857 14.9948C11.602 14.9497 12.3008 14.6024 12.805 14.0268C13.3091 13.4511 13.5789 12.6923 13.557 11.9118C13.5351 11.1312 13.2233 10.3903 12.6877 9.84659C12.1521 9.30284 11.435 8.99907 10.6888 8.99983V6.99984C11.0309 6.98784 11.33 7.13984 11.5164 7.39784L11.5813 7.49884C11.7121 7.71948 11.9197 7.87827 12.1603 7.94162C12.4009 8.00498 12.6556 7.96792 12.8705 7.8383C13.0855 7.70869 13.2438 7.49666 13.3121 7.24706C13.3804 6.99746 13.3532 6.72986 13.2364 6.50084C12.9926 6.058 12.6447 5.68767 12.2258 5.42498C11.8069 5.16229 11.3308 5.01596 10.8427 4.99986H10.6888C10.6888 4.73464 10.5882 4.48029 10.409 4.29275C10.2298 4.10522 9.98672 3.99986 9.73329 3.99986ZM10.6888 10.9998C10.9423 10.9998 11.1853 11.1052 11.3645 11.2927C11.5437 11.4802 11.6444 11.7346 11.6444 11.9998C11.6444 12.265 11.5437 12.5194 11.3645 12.7069C11.1853 12.8944 10.9423 12.9998 10.6888 12.9998V10.9998ZM8.77773 6.99984V8.99983C8.52431 8.99983 8.28126 8.89447 8.10205 8.70693C7.92285 8.5194 7.82218 8.26505 7.82218 7.99983C7.82218 7.73462 7.92285 7.48027 8.10205 7.29273C8.28126 7.1052 8.52431 6.99984 8.77773 6.99984Z" fill="white"/>
</svg>
