<svg width="20" height="21" viewBox="0 0 20 21" fill="none" xmlns="http://www.w3.org/2000/svg">
<g id="&#240;&#159;&#166;&#134; icon &#34;Analytics&#34;">
<g id="Vector">
<mask id="path-1-inside-1_34_113" fill="white">
<path d="M2.56651 1.75H1.37207V18C1.37207 18.3315 1.49791 18.6495 1.72191 18.8839C1.94592 19.1183 2.24973 19.25 2.56651 19.25H18.0943V18H2.56651V1.75Z"/>
</mask>
<path d="M2.56651 1.75H1.37207V18C1.37207 18.3315 1.49791 18.6495 1.72191 18.8839C1.94592 19.1183 2.24973 19.25 2.56651 19.25H18.0943V18H2.56651V1.75Z" fill="white"/>
<path d="M2.56651 1.75H5.56651V-1.25H2.56651V1.75ZM1.37207 1.75V-1.25H-1.62793V1.75H1.37207ZM1.37207 18H-1.62793H1.37207ZM18.0943 19.25V22.25H21.0943V19.25H18.0943ZM18.0943 18H21.0943V15H18.0943V18ZM2.56651 18H-0.433485V21H2.56651V18ZM2.56651 -1.25H1.37207V4.75H2.56651V-1.25ZM-1.62793 1.75V18H4.37207V1.75H-1.62793ZM-1.62793 18C-1.62793 19.0843 -1.21762 20.15 -0.447057 20.9565L3.89089 16.8113C4.21345 17.1489 4.37207 17.5788 4.37207 18H-1.62793ZM-0.447057 20.9565C0.327939 21.7675 1.40893 22.25 2.56651 22.25V16.25C3.09052 16.25 3.56389 16.4691 3.89089 16.8113L-0.447057 20.9565ZM2.56651 22.25H18.0943V16.25H2.56651V22.25ZM21.0943 19.25V18H15.0943V19.25H21.0943ZM18.0943 15H2.56651V21H18.0943V15ZM5.56651 18V1.75H-0.433485V18H5.56651Z" fill="white" mask="url(#path-1-inside-1_34_113)"/>
</g>
<g id="Vector_2">
<mask id="path-3-inside-2_34_113" fill="white">
<path d="M18.0943 6.125H13.9138V7.375H16.0578L11.5249 12.1188L8.96279 9.43125C8.90727 9.37267 8.84122 9.32617 8.76844 9.29444C8.69567 9.26271 8.6176 9.24638 8.53876 9.24638C8.45992 9.24638 8.38186 9.26271 8.30909 9.29444C8.23631 9.32617 8.17026 9.37267 8.11474 9.43125L3.76099 13.9938L4.60307 14.875L8.53876 10.7562L11.1008 13.4437C11.1564 13.5023 11.2224 13.5488 11.2952 13.5806C11.368 13.6123 11.446 13.6286 11.5249 13.6286C11.6037 13.6286 11.6818 13.6123 11.7546 13.5806C11.8273 13.5488 11.8934 13.5023 11.9489 13.4437L16.8999 8.25625V10.5H18.0943V6.125Z"/>
</mask>
<path d="M18.0943 6.125H13.9138V7.375H16.0578L11.5249 12.1188L8.96279 9.43125C8.90727 9.37267 8.84122 9.32617 8.76844 9.29444C8.69567 9.26271 8.6176 9.24638 8.53876 9.24638C8.45992 9.24638 8.38186 9.26271 8.30909 9.29444C8.23631 9.32617 8.17026 9.37267 8.11474 9.43125L3.76099 13.9938L4.60307 14.875L8.53876 10.7562L11.1008 13.4437C11.1564 13.5023 11.2224 13.5488 11.2952 13.5806C11.368 13.6123 11.446 13.6286 11.5249 13.6286C11.6037 13.6286 11.6818 13.6123 11.7546 13.5806C11.8273 13.5488 11.8934 13.5023 11.9489 13.4437L16.8999 8.25625V10.5H18.0943V6.125Z" fill="white"/>
<path d="M18.0943 6.125H23.0943V1.125H18.0943V6.125ZM13.9138 6.125V1.125H8.91376V6.125H13.9138ZM13.9138 7.375H8.91376V12.375H13.9138V7.375ZM16.0578 7.375L19.6727 10.8293L27.7513 2.375H16.0578V7.375ZM11.5249 12.1188L7.90591 15.5688L11.5207 19.3605L15.1398 15.573L11.5249 12.1188ZM8.96279 9.43125L5.33372 12.8707L5.33877 12.876L5.34382 12.8813L8.96279 9.43125ZM8.53876 9.24638V14.2464V9.24638ZM8.11474 9.43125L11.7321 12.8831L11.7379 12.8769L11.7438 12.8707L8.11474 9.43125ZM3.76099 13.9938L0.143669 10.5419L-3.15247 13.9961L0.146033 17.448L3.76099 13.9938ZM4.60307 14.875L0.988116 18.3293L4.60307 22.1124L8.21802 18.3293L4.60307 14.875ZM8.53876 10.7562L12.1577 7.30617L8.54297 3.51446L4.92381 7.30196L8.53876 10.7562ZM11.1008 13.4437L14.7299 10.0043L14.7249 9.99897L14.7198 9.99367L11.1008 13.4437ZM11.9489 13.4437L8.33187 9.99164L8.32584 9.99795L8.31983 10.0043L11.9489 13.4437ZM16.8999 8.25625H21.8999V-4.22456L13.2828 4.80414L16.8999 8.25625ZM16.8999 10.5H11.8999V15.5H16.8999V10.5ZM18.0943 10.5V15.5H23.0943V10.5H18.0943ZM18.0943 1.125H13.9138V11.125H18.0943V1.125ZM8.91376 6.125V7.375H18.9138V6.125H8.91376ZM13.9138 12.375H16.0578V2.375H13.9138V12.375ZM12.4428 3.92071L7.90992 8.66446L15.1398 15.573L19.6727 10.8293L12.4428 3.92071ZM15.1438 8.66867L12.5818 5.98117L5.34382 12.8813L7.90591 15.5688L15.1438 8.66867ZM12.5919 5.99179C12.0828 5.45469 11.4647 5.01543 10.7667 4.71113L6.77014 13.8778C6.21774 13.6369 5.73172 13.2906 5.33372 12.8707L12.5919 5.99179ZM10.7667 4.71113C10.0682 4.40655 9.31023 4.24638 8.53876 4.24638V14.2464C7.92498 14.2464 7.32316 14.1189 6.77014 13.8778L10.7667 4.71113ZM8.53876 4.24638C7.7673 4.24638 7.00936 4.40655 6.31078 4.71113L10.3074 13.8778C9.75437 14.1189 9.15255 14.2464 8.53876 14.2464V4.24638ZM6.31078 4.71113C5.61283 5.01543 4.99471 5.45469 4.48567 5.99179L11.7438 12.8707C11.3458 13.2906 10.8598 13.6369 10.3074 13.8778L6.31078 4.71113ZM4.49742 5.97944L0.143669 10.5419L7.3783 17.4456L11.7321 12.8831L4.49742 5.97944ZM0.146033 17.448L0.988116 18.3293L8.21802 11.4207L7.37594 10.5395L0.146033 17.448ZM8.21802 18.3293L12.1537 14.2105L4.92381 7.30196L0.988116 11.4207L8.21802 18.3293ZM4.9198 14.2063L7.48188 16.8938L14.7198 9.99367L12.1577 7.30617L4.9198 14.2063ZM7.47178 16.8832C7.98078 17.4203 8.59889 17.8595 9.2969 18.1639L13.2935 8.99724C13.846 9.23811 14.332 9.58439 14.7299 10.0043L7.47178 16.8832ZM9.2969 18.1639C9.99549 18.4685 10.7534 18.6286 11.5249 18.6286V8.62862C12.1386 8.62862 12.7405 8.75612 13.2935 8.99724L9.2969 18.1639ZM11.5249 18.6286C12.2963 18.6286 13.0543 18.4685 13.7529 18.1639L9.75625 8.99724C10.3093 8.75612 10.9111 8.62862 11.5249 8.62862V18.6286ZM13.7529 18.1639C14.4509 17.8595 15.069 17.4203 15.578 16.8832L8.31983 10.0043C8.71779 9.58439 9.2038 9.23811 9.75625 8.99724L13.7529 18.1639ZM15.5659 16.8959L20.5169 11.7084L13.2828 4.80414L8.33187 9.99164L15.5659 16.8959ZM11.8999 8.25625V10.5H21.8999V8.25625H11.8999ZM16.8999 15.5H18.0943V5.5H16.8999V15.5ZM23.0943 10.5V6.125H13.0943V10.5H23.0943Z" fill="white" mask="url(#path-3-inside-2_34_113)"/>
</g>
</g>
</svg>
