<svg width="24" height="24" viewBox="0 0 24 24" fill="none" xmlns="http://www.w3.org/2000/svg">
<g id="Group">
<path id="Vector" d="M20 14.0001C20.3852 14.0002 20.7556 14.1486 21.0344 14.4145C21.3132 14.6803 21.479 15.0432 21.4975 15.428C21.516 15.8127 21.3858 16.1899 21.1338 16.4813C20.8818 16.7726 20.5274 16.9559 20.144 16.9931L20 17.0001H7.62099L9.06099 18.4401C9.33376 18.7118 9.49156 19.0781 9.50172 19.463C9.51189 19.848 9.37364 20.222 9.11559 20.5078C8.85755 20.7936 8.49948 20.9693 8.11553 20.9983C7.73157 21.0274 7.35113 20.9077 7.05299 20.6641L6.93899 20.5611L3.10999 16.7311C2.13599 15.7571 2.76999 14.1141 4.10099 14.0061L4.24099 14.0001H20ZM14.94 3.44006C15.2024 3.17745 15.5528 3.02147 15.9235 3.00226C16.2942 2.98305 16.6589 3.10198 16.947 3.33606L17.061 3.43906L20.89 7.26906C21.864 8.24306 21.23 9.88606 19.899 9.99406L19.759 10.0001H3.99999C3.61477 9.99987 3.2444 9.85148 2.9656 9.58565C2.68681 9.31982 2.52098 8.95691 2.50247 8.57214C2.48395 8.18737 2.61418 7.81023 2.86617 7.51886C3.11815 7.22749 3.47257 7.04423 3.85599 7.00706L3.99999 7.00006H16.379L14.939 5.56006C14.6581 5.27881 14.5003 4.89756 14.5003 4.50006C14.5003 4.10256 14.6591 3.72131 14.94 3.44006Z" fill="white"/>
</g>
</svg>
